<svg viewBox="0 0 21 20" fill="none" xmlns="http://www.w3.org/2000/svg" class="icon icon-clock">
    <g clip-path="url(#clip0_1164_72628)">
        <path
            d="M10.9429 20.0002C8.63036 20.003 6.38841 19.2023 4.59924 17.7343C2.81008 16.2664 1.58444 14.2223 1.13127 11.9503C0.678097 9.67838 1.02544 7.31929 2.1141 5.27521C3.20275 3.23113 4.96532 1.6286 7.10134 0.740787C9.23736 -0.147022 11.6146 -0.265144 13.8278 0.406556C16.0411 1.07826 17.9532 2.4982 19.2384 4.42432C20.5236 6.35045 21.1023 8.66353 20.8757 10.9692C20.6491 13.275 19.6314 15.4306 17.996 17.0687C16.1257 18.9438 13.5888 19.9982 10.9429 20.0002ZM10.9429 1.91443C9.07332 1.91251 7.26093 2.56024 5.81467 3.74722C4.36841 4.93419 3.37778 6.58694 3.01166 8.42375C2.64553 10.2606 2.92655 12.1677 3.80684 13.8202C4.68712 15.4727 6.11217 16.7681 7.83909 17.4858C9.566 18.2034 11.4879 18.2988 13.2772 17.7558C15.0664 17.2127 16.6123 16.0647 17.6514 14.5075C18.6904 12.9504 19.1583 11.0804 18.9752 9.21629C18.7921 7.35222 17.9694 5.60944 16.6474 4.28503C15.135 2.76809 13.083 1.9152 10.9429 1.91399V1.91443ZM15.9757 10.4465C15.9761 10.3207 15.9516 10.196 15.9037 10.0797C15.8558 9.96341 15.7854 9.85774 15.6966 9.76877C15.6078 9.6798 15.5023 9.6093 15.3862 9.56131C15.2702 9.51332 15.1457 9.4888 15.0202 9.48914H11.898V4.89496C11.8927 4.64466 11.7897 4.40641 11.6111 4.23129C11.4325 4.05616 11.1926 3.95808 10.9427 3.95808C10.6928 3.95808 10.4528 4.05616 10.2743 4.23129C10.0957 4.40641 9.99269 4.64466 9.98735 4.89496V10.4439C9.98746 10.6977 10.0882 10.9412 10.2673 11.1207C10.4465 11.3002 10.6895 11.4011 10.9429 11.4012H15.0202C15.2736 11.4011 15.5165 11.3002 15.6957 11.1207C15.8749 10.9412 15.9756 10.6977 15.9757 10.4439V10.4465Z"
            fill="black"></path>
    </g>
    <defs>
        <clipPath id="clip0_1164_72628">
            <rect width="19.9627" height="20" fill="white" transform="translate(0.960938)"></rect>
        </clipPath>
    </defs>
</svg>