<svg width="21" height="21" viewBox="0 0 19 20" fill="none" xmlns="http://www.w3.org/2000/svg"
    class="icon icon-gift">
    <path
        d="M16.6671 5.41646C16.854 5.45888 17.0383 5.51133 17.2193 5.57359C18.0952 5.9255 18.6283 6.56381 18.6812 7.48942C18.7262 8.39445 18.7245 9.30112 18.6762 10.206C18.648 10.8176 18.3244 11.3175 17.8322 11.7006C17.7938 11.7267 17.7629 11.7621 17.7425 11.8034C17.7221 11.8446 17.7128 11.8903 17.7157 11.936C17.7191 13.7212 17.7196 15.5063 17.7172 17.2915C17.7157 18.1409 17.3475 18.8023 16.6169 19.2606C16.2674 19.4801 15.8601 19.595 15.4449 19.5912C11.4762 19.5908 7.50737 19.5901 3.53858 19.589C2.28622 19.5874 1.28294 18.5773 1.28133 17.3356C1.27898 15.541 1.27963 13.7465 1.28328 11.9519C1.28613 11.902 1.27589 11.8521 1.25352 11.8071C1.23114 11.7621 1.19739 11.7235 1.15546 11.6949C0.884516 11.4867 0.665811 11.2205 0.516088 10.9168C0.366365 10.6131 0.289593 10.2799 0.291646 9.94272C0.280638 9.18181 0.286171 8.42067 0.289859 7.65964C0.294693 7.13394 0.486825 6.62639 0.833095 6.22458C1.17937 5.82277 1.65805 5.55192 2.18652 5.45877C2.23263 5.45087 2.27775 5.43711 2.3306 5.42424C2.14342 5.05618 2.02254 4.65925 1.97329 4.25093C1.85751 3.17891 2.15966 2.23428 2.89992 1.43596C3.48336 0.792759 4.29438 0.390288 5.16917 0.309826C6.05246 0.21955 6.89564 0.391863 7.69457 0.767411C8.36341 1.08036 8.95032 1.53887 9.41045 2.1079C9.43431 2.13712 9.4599 2.165 9.4939 2.20415C9.54911 2.14164 9.60166 2.08313 9.65307 2.0236C10.5212 1.02052 11.6268 0.449416 12.9583 0.309771C14.0923 0.191284 15.0973 0.498727 15.9291 1.272C16.5435 1.8374 16.9302 2.59987 17.019 3.42079C17.0986 4.08183 16.9857 4.75143 16.6935 5.35242C16.6838 5.37312 16.6762 5.39479 16.6671 5.41646ZM3.25418 12.2055V12.374C3.25418 13.9994 3.25418 15.6248 3.25418 17.2503C3.25418 17.5466 3.36897 17.6605 3.66819 17.6605C5.22312 17.6605 6.77804 17.6605 8.33294 17.6605H8.49759V12.2055L3.25418 12.2055ZM10.4937 12.2038V17.6538C10.5443 17.6561 10.5911 17.6602 10.6377 17.6603C12.2014 17.6606 13.7653 17.6606 15.3292 17.6603C15.6267 17.6603 15.7442 17.5429 15.7442 17.2476C15.7442 15.6182 15.7442 13.9888 15.7442 12.3594V12.2037L10.4937 12.2038ZM8.49857 7.3746H8.34758C6.45224 7.3746 4.55688 7.3746 2.66151 7.3746C2.38073 7.3746 2.27227 7.48231 2.27216 7.75945C2.27174 8.46402 2.27174 9.16858 2.27216 9.87315C2.27216 10.1468 2.38373 10.255 2.66468 10.255C4.55529 10.255 6.44587 10.255 8.3364 10.255H8.49857V7.3746ZM10.4881 10.2553H10.6169C12.5315 10.2553 14.4461 10.2553 16.3607 10.2553C16.6057 10.2553 16.7263 10.134 16.7263 9.88697C16.7263 9.17774 16.7253 8.46849 16.7234 7.75923C16.7229 7.48558 16.6112 7.37505 16.3324 7.37499C14.4369 7.37473 12.5415 7.37473 10.6461 7.37499C10.5951 7.37499 10.5443 7.37934 10.4881 7.38193V10.2553ZM10.4889 5.42683C10.5339 5.42937 10.5712 5.43327 10.6085 5.43327C11.5675 5.43357 12.5264 5.43327 13.4854 5.43237C13.5619 5.43047 13.6382 5.42264 13.7135 5.40895C14.4466 5.29255 14.9889 4.72201 15.078 3.9752C15.1571 3.31207 14.7405 2.63071 14.0955 2.35627C13.6697 2.1751 13.2349 2.19699 12.7988 2.29313C11.3371 2.61519 10.3903 3.89485 10.4888 5.42683H10.4889ZM8.53194 5.43355C8.5026 5.11674 8.50485 4.81809 8.44336 4.53265C8.16518 3.24058 7.10294 2.33472 5.75941 2.22802C5.16098 2.18051 4.64715 2.36242 4.27325 2.83248C3.85993 3.35156 3.78835 3.93102 4.0818 4.52374C4.37767 5.12125 4.88862 5.42576 5.56831 5.43169C6.45085 5.43936 7.33358 5.43355 8.21618 5.43355H8.53194Z"
        fill="currentColor"></path>
</svg>