<svg width="23" height="21" viewBox="0 0 23 17" fill="none" xmlns="http://www.w3.org/2000/svg"
    class="icon icon-email">
    <path
        d="M11.507 0.0423802C14.8187 0.0423802 18.1304 0.0421406 21.4421 0.0416614C21.6927 0.0327663 21.9377 0.116019 22.1294 0.275214C22.2234 0.351884 22.301 0.44624 22.3575 0.552763C22.414 0.659287 22.4484 0.775842 22.4587 0.89561C22.4656 0.970075 22.469 1.04507 22.4691 1.11982C22.4695 5.69357 22.4698 10.2673 22.47 14.841C22.47 15.176 22.4182 15.4986 22.2462 15.7921C21.9056 16.3737 21.3934 16.6825 20.7105 16.7126C20.675 16.7142 20.6395 16.7129 20.604 16.7129C14.5334 16.7129 8.46274 16.7135 2.39212 16.7145C1.97781 16.7145 1.59835 16.6173 1.26701 16.3719C0.806674 16.0309 0.557916 15.5748 0.534315 15.0047C0.531249 14.9299 0.53125 14.8549 0.53125 14.78C0.53125 10.2362 0.531642 5.69245 0.53242 1.14867C0.528208 1.01922 0.538979 0.889727 0.564533 0.762685C0.613652 0.562026 0.728441 0.38285 0.891198 0.252784C1.05396 0.122718 1.25564 0.0489853 1.46516 0.0429549C1.51582 0.0410861 1.56657 0.0423802 1.61728 0.0423802H11.507ZM19.0061 1.95911C18.7548 1.9247 4.12131 1.93515 4.00296 1.9695L11.4989 8.73439L19.0061 1.95911ZM19.0104 14.8055L13.3207 9.67071C13.2694 9.71489 13.231 9.74676 13.1942 9.78006C12.8424 10.0963 12.4958 10.4187 12.1382 10.7283C11.7495 11.0647 11.2234 11.0542 10.8394 10.7132C10.6173 10.516 10.3986 10.3152 10.1776 10.1164C10.0141 9.96905 9.85004 9.82237 9.68829 9.67728C9.39763 9.89339 4.08486 14.7098 4.02982 14.8057L19.0104 14.8055ZM2.46433 13.6076L8.25506 8.38152C7.92143 8.0806 7.60036 7.79127 7.27959 7.5017C6.95881 7.21213 6.63726 6.92136 6.31609 6.63131C5.99856 6.34467 5.68094 6.0581 5.36325 5.77161C5.04208 5.48168 4.72083 5.19165 4.39951 4.90152C4.07818 4.61139 3.75676 4.32153 3.43527 4.03195C3.1162 3.74612 2.80447 3.45214 2.46457 3.16334L2.46433 13.6076ZM14.7486 8.37596C15.2456 8.87498 20.4088 13.509 20.5362 13.5672C20.5362 10.1395 20.5362 6.71477 20.5362 3.2931C20.5362 3.26339 20.5327 3.23368 20.5301 3.20402C20.5295 3.20182 20.5285 3.19975 20.5271 3.19794C20.5257 3.19613 20.524 3.19461 20.522 3.19348C20.5145 3.19037 20.5068 3.188 20.4989 3.18643L14.7486 8.37596Z"
        fill="currentColor"></path>
</svg>