<svg viewBox="0 0 24 26" fill="none" xmlns="http://www.w3.org/2000/svg" class="icon icon-recycle">
    <g clip-path="url(#clip0_1164_72615)">
        <path
            d="M3.35938 12.6556L0.822482 17.2176C0.540788 17.725 0.396504 18.2972 0.403916 18.8775C0.411327 19.4578 0.570176 20.0262 0.864738 20.5262C1.1593 21.0263 1.57936 21.4407 2.08333 21.7285C2.58729 22.0163 3.15769 22.1675 3.73806 22.1672H8.73746V18.8342H3.73806L6.23999 14.3221L8.95619 15.8881L7.13274 9.05859L0.304688 10.888L3.35938 12.6556Z"
            fill="black"></path>
        <path
            d="M14.9849 2.21939C14.6966 1.69844 14.2741 1.26422 13.7613 0.961846C13.2484 0.659475 12.6639 0.5 12.0685 0.5C11.4732 0.5 10.8887 0.659475 10.3758 0.961846C9.86296 1.26422 9.44045 1.69844 9.15222 2.21939L6.59375 6.82673L9.48105 8.4932L12.0685 3.83527L14.656 8.4932L11.8431 10.115L18.6719 11.9437L20.5013 5.11562L17.5389 6.82673L14.9849 2.21939Z"
            fill="black"></path>
        <path
            d="M20.783 12.6562L17.8957 14.3227L20.4036 18.8348H15.4042V15.5019L10.4062 20.5013L15.4056 25.5007V22.1678H20.405C20.9854 22.1681 21.5557 22.0168 22.0597 21.729C22.5636 21.4412 22.9837 21.0268 23.2783 20.5268C23.5729 20.0268 23.7318 19.4585 23.7394 18.8782C23.7469 18.2979 23.6029 17.7257 23.3214 17.2182L20.783 12.6562Z"
            fill="black"></path>
    </g>
    <defs>
        <clipPath id="clip0_1164_72615">
            <rect width="23.4362" height="25" fill="white" transform="translate(0.300781 0.5)"></rect>
        </clipPath>
    </defs>
</svg>