<svg viewBox="0 0 18 12" fill="none" xmlns="http://www.w3.org/2000/svg"
    clas="icon icon-shipping-truck">
    <path
        d="M17.0672 5.92437L15.4538 5.59484L14.6975 3.29892C14.5631 2.90352 14.3087 2.55988 13.9698 2.31587C13.6309 2.07185 13.2243 1.93962 12.8067 1.93757H11.521V0.756303C11.5204 0.555901 11.4405 0.363878 11.2988 0.222172C11.1571 0.0804663 10.9651 0.000593785 10.7647 0H0.756303C0.555901 0.000593785 0.363878 0.0804663 0.222172 0.222172C0.0804663 0.363878 0.000593785 0.555901 0 0.756303V9.07563C0.000593785 9.27603 0.0804663 9.46805 0.222172 9.60976C0.363878 9.75147 0.555901 9.83134 0.756303 9.83193H1.58824C1.58824 10.4069 1.81666 10.9584 2.22325 11.365C2.62984 11.7716 3.1813 12 3.7563 12C4.33131 12 4.88277 11.7716 5.28936 11.365C5.69595 10.9584 5.92437 10.4069 5.92437 9.83193H11.7227C11.7227 10.4069 11.9511 10.9584 12.3577 11.365C12.7643 11.7716 13.3157 12 13.8908 12C14.4658 12 15.0172 11.7716 15.4238 11.365C15.8304 10.9584 16.0588 10.4069 16.0588 9.83193H16.8908C17.0912 9.83134 17.2832 9.75147 17.4249 9.60976C17.5666 9.46805 17.6465 9.27603 17.6471 9.07563V6.65546C17.6723 6.30252 17.422 6 17.0672 5.92437ZM3.7563 10.8655C3.49272 10.85 3.24504 10.7343 3.06392 10.5422C2.8828 10.35 2.78193 10.096 2.78193 9.83193C2.78193 9.56789 2.8828 9.31382 3.06392 9.12169C3.24504 8.92956 3.49272 8.81388 3.7563 8.79832C4.01989 8.81388 4.26756 8.92956 4.44868 9.12169C4.6298 9.31382 4.73068 9.56789 4.73068 9.83193C4.73068 10.096 4.6298 10.35 4.44868 10.5422C4.26756 10.7343 4.01989 10.85 3.7563 10.8655ZM11.521 5.39496V3.07383H12.8067C12.9845 3.07565 13.1574 3.13232 13.3018 3.2361C13.4462 3.33988 13.555 3.48571 13.6134 3.65366L14.1933 5.39316L11.521 5.39496ZM13.916 10.8655C13.7112 10.8655 13.511 10.8048 13.3407 10.691C13.1704 10.5773 13.0377 10.4156 12.9594 10.2264C12.881 10.0372 12.8605 9.82898 12.9004 9.62813C12.9404 9.42728 13.039 9.24279 13.1838 9.09798C13.3286 8.95318 13.5131 8.85456 13.714 8.81461C13.9148 8.77466 14.123 8.79517 14.3122 8.87353C14.5014 8.9519 14.6631 9.08461 14.7769 9.25489C14.8907 9.42516 14.9514 9.62535 14.9514 9.83013C14.9262 10.4118 14.4706 10.8655 13.916 10.8655Z"
        fill="black"></path>
</svg>