<svg xmlns="http://www.w3.org/2000/svg" viewBox="0 0 529.18 426.68">
    <defs>
        <style>.cls-1{fill-rule:evenodd;}</style>
    </defs>
    <g id="Layer_2" data-name="Layer 2" class="icon icon-vegan">
        <g id="Layer_1-2" data-name="Layer 1">
            <path
                d="M152.61,351.36C58.48,333.28,0,266.26,0,176.46A174.79,174.79,0,0,1,52.1,51.74,176.2,176.2,0,0,1,177.1,0c97.1,0,176.38,79.15,176.75,176.45,0,39.6-10.16,65.13-28.92,98.4l-3.48-2c18.42-32.68,28.4-57.72,28.4-96.43C349.49,81.37,272,4,177.1,4,81.65,4,4,81.36,4,176.46c0,87.76,57.23,153.28,149.36,171Z"></path>
            <path
                d="M523.52,294.1c-.43-.24-.46-.31-.46-1l-.14-2.54c-.06-1.59-.56-2.32-1.18-2.73a3.9,3.9,0,0,0,1.46-3.3c0-2.79-1.81-4.32-5.1-4.32H511v15.11h2.88v-6h4.18c1.67,0,2,.8,2,2a13.89,13.89,0,0,0,.31,3.68l.11.34h3.24v-1.08Zm-3.26-9.43c0,1.37-.71,1.95-2.38,1.95h-4v-3.75h4.25C519.42,282.87,520.26,283.17,520.26,284.67Z"></path>
            <path
                d="M516.8,300.94a12.78,12.78,0,1,1,12.38-12.74A12.54,12.54,0,0,1,516.8,300.94Zm0-24.55a11.78,11.78,0,1,0,11.38,11.81A11.58,11.58,0,0,0,516.8,276.39Z"></path>
            <path
                d="M235,70.19c-1.92-2.72-5.9-5.14-10.72-6.48L213.4,62.38l-.87-.11h0c-10.9.73-18.08,2.89-26.34,5.65-12.21,4.39-21.14,8.58-29.83,14C141.94,91,131.08,101,124.08,111.78c-3.92,5-12.21,17.55-4.6,26.48,4.83,5.89,12,7.67,19.23,7.67s14.38-1.75,19.44-3c16.58-4.39,25.33-9.71,33.79-14.85,2.22-1.35,4.5-2.74,6.88-4.07,5.5-3.36,9.29-7.61,12.72-11.89l1.7-.77c3.68-1.67,7.16-3.25,9.38-5.52a102.56,102.56,0,0,0,8.17-11C237.5,85.7,238.91,77.4,235,70.19Zm-3.8,14.92a13.68,13.68,0,0,0-.41,1.69,77.85,77.85,0,0,1-12.33,15.36h0c-2.06,2.23-3.93,4.61-5.73,6.91-.59.75-1.18,1.51-1.79,2.27a49.94,49.94,0,0,0-8.24,4.58c-12.29,8.64-18.81,12.29-31.73,17.73a121.81,121.81,0,0,1-30.19,8,31.82,31.82,0,0,1-10.33-1.7,15.36,15.36,0,0,1-7.44-5,20.79,20.79,0,0,1-1.32-5.44c-1-6.85,4.15-13.45,9.56-20.43.5-.65,1-1.3,1.5-2,5.33-6.81,15.89-16.65,27.5-23.27l.31-.17c9.22-5.14,17.93-10,31-13.75l3.52-.87a95.74,95.74,0,0,1,10.68-2.28l2.1.37.08,0a65.56,65.56,0,0,1,15.43.91c5.82,2.3,9,6.53,8.83,11.92A21.7,21.7,0,0,1,231.17,85.11Z"></path>
            <path class="cls-1"
                d="M378.78,336.73c7.63-3.46,17-6.84,24-12.82,11.88-9.07-.72-26.93-13-19.58-11.88,6.69,1.37,16.13-1.44,21-.64.65-1,3.1-2.44,3.82a16.06,16.06,0,0,1-8,2.45c-10.87-.36-16.12-22.4,1.73-32.84,7.35-4.24,20.67-5.61,31.11-3.16,8.78,2.08,15.4,7.7,17.85,15,.72,1.73.36,5.62,0,8.72,0,8.78-1.08,20.3-1.44,30.09-.29,12.89,1.8,21.31,15.77,15.7,0-.36,1.37-2.45,1.37-4.54,1.08-11.52,1.8-41.9,1.08-44.35-1.37-3.17-11.52-3.53-9.79-10.51,1.36-4.54,6.62-7.35,14.68-10.15,2.81-1.37,6.63-3.46,11.16-2.81,1.44,0,3.89.36,4.9,1.73,1.44,2.16,1.44,5.61,1.44,8.06,5.26-3.17,6.62-7.34,13.25-9.07,4.17-1.37,10.87-.36,16.41,2.09a23.66,23.66,0,0,1,9.44,9.43c1.08,2.81,1.44,8.78,1.44,13.32.36,9.79-.36,20.23-.72,32.11,0,4.9-1,9.14,0,13,1.08,4.18,8.42,2.81,9.79,6.62.72,2.09.72,6.7.72,6.7h-37.8a39.23,39.23,0,0,1,0-6c.72-2.44,4.25-3.16,6.33-4.89a4.92,4.92,0,0,0,.72-2.45v-2.09a36.14,36.14,0,0,1,0-6.26c.29-8.07.29-10.15.65-21,.72-10.8.36-18.5-3.81-21.67-1.73-1.73-3.17-2.45-7-1.73-11.88,2.45-11.88,13.25-11.88,24.84,0,13.61-1.44,22.68.65,27.94,1.08,2.09,5.26,2.81,8.06,4.18a9.85,9.85,0,0,1,3.17,2.44s1,4.54,0,7c-17.85,0-33.55-.29-42.33,0-11.88,0-15.34,0-18.51-.65-4.17-1.44-4.53-3.17-7-3.89-4.9-1.37-21,8.43-32.19,4.54-8.35-3.1-14.32-7.63-16.41-16.42C358,347.74,366.9,342.27,378.78,336.73ZM383.31,360c1.51,2.16,3.31,3.24,6.48,3.53,4,.51,8.79-.07,12.31-5.33,3.82-4.89,4.9-14.32,4.9-21.67a12.3,12.3,0,0,1-6.41,3.89A107.73,107.73,0,0,0,389,346.52c-2.16,1.73-5.53,4.11-7,8.36A11,11,0,0,0,383.31,360Z"></path>
            <path class="cls-1"
                d="M287.19,348.68h-.07c-2.81-3.1-4.9-8.35-7-14-1.37-4.89-1.08-15.33,4.53-24.84,4.54-6.62,12.6-14,22-16.41A55.58,55.58,0,0,1,322.47,291c5.91.36,9.07,1.73,16.42,2.45,1.37-3.46,7-10.8,10.8-11.52,9.79-2.45,21,8.71,32.9-1.73.65,3.81-1.08,7.34-3.89,11.52-2.8,4.53-5.25,6.26-9.43,7-7.34,1.37-17.85-11.16-22.68-3.81-1.8,2.73,0,4.53,2.45,6.26,4.82,3.17,10.8,8.06,13.25,13.25,3.53,8.06,3.81,12.6,2.45,18.57a35.81,35.81,0,0,1-4.9,10.44,46.1,46.1,0,0,1-6,6.7c-2.44,1.73-5.54,3.1-7.27,4.9-2.16,2.08-2.45,2.8-2.45,5.25,0,1.73,2.74,2.74,5.55,3.1a21.69,21.69,0,0,1,11.23,7.34c3.46,4.9,4.9,9.07,5.18,14,.36,3.53.36,6-2.44,12.6a39,39,0,0,1-9.08,14c-14.32,14-27.57,17.85-45.79,14-4.17-.72-15.33-6-20.59-11.59-6.7-7-7.7-15.34-8.06-16.42a35.59,35.59,0,0,1,3.16-19.58c3.1-6.27,8.72-10.8,13.25-13.25,9.79-4.9,28.66.36,31.47,11.88.72,3.17-2.45,9.79-5.55,10.51-1.44.65-4.89,2.09-8.06,0-2.81-1.8-4.54-6.34-9.07-6-3.53.36-6.34,1.73-8.79,6-3.81,8,4.9,21,17.14,23,9.07,1.37,16.77-2.45,22.75-7.7,7.34-7,10.8-15.34,5.54-24.48-4.89-7-14.32-11.52-22.68-14.33-11.52-3.1-23.11-4.18-32.18-14.69ZM306,328.45c0,9.79-1.36,20.59,7.71,24.48A19.83,19.83,0,0,0,320,354.3a15.31,15.31,0,0,0,5.55-1.37c9.07-3.89,7.7-14.69,7.7-24.48,0-8.79,2.09-18.58-5.25-22.75a15.83,15.83,0,0,0-8-2.45c-2.8,0-4.89,1.44-7,2.45C305.34,310.23,306,319.38,306,328.45Z"></path>
            <path class="cls-1"
                d="M239.17,336.44H228.8c0,14.69,1.44,24.48,15.77,28,3.09,1,6.26,0,8.35-1.08,6.7-2.09,12.6-12.24,19.51-11.52,1.73.36,3.53,2.09,3.17,3.17-10.08,26.56-39.1,32.47-59.4,8.35-3.1-3.46-7.27-11.88-9.07-20.59-2.45-10.88-.65-22.4,2.09-28.37,4.89-10.08,11.59-17.43,20.3-21a35.81,35.81,0,0,1,14-3.1c6.62,0,14,3.46,18.21,5.18,11.81,7,20.16,27.29,13.9,40.9Zm15.19-11.88c3.1-9.43-2.45-22.68-12.24-22.68s-13.32,14.33-12.6,22.68h24.84Z"></path>
            <path class="cls-1"
                d="M261,213.83c-6.62,1.72-27.93-.72-40.17,8.06-9.8,6.26-14,16.7-13.68,27.86,0,6,2.44,12.6,3.88,18.58,4.9-22.75,12.89-35.35,37.37-37.37-2.09,7.63-8.35,8.35-16.41,18.79a270.85,270.85,0,0,0-24.84,32.91c-8,11.88-10.44,17.49-15,27.93,0,0-1,2.45-2.45,5.62-1,2.09-2.09,5.54-4.54,5.9,0-46.15-16.41-60.48,3.89-105.12,7-17.13,8-15.76,10.8-25.84a76.91,76.91,0,0,0,1.66-7.89c3.11-19.3,1.51-45,1.51-45,3.53.72,9.07,7.34,11.88,11.59-1.73-7-.36-10.87,3.17-21.38,7.7,1.08,4.53,8.78,8.35,18.93l3.17-25.92c10.51-1.73,16.41-2.45,25.85-.65-6.63-5.25-12.24-7-14-14,10.51,0,15.41,1.08,27.93-3.09-12.52-7.71-17.06-10.51-18.14-12.6,12.76-5.53,18.68-10.36,25.45-19.86-2.87,3.63-12,5.89-15.66,5.89,1.08-7.34,11.81-13.68,18.43-16.42-18.43-.36-17.06,2.09-28.22,3.82,2.45-14,6.26-20.95,13-25.56-8.06,3.17-14,11.59-23.47,12.24,1.08-5.18,4.53-14,8.42-16.42a2.52,2.52,0,0,0-.72-1.36s-21.06,14-31,23.11l0,0h-.05l0,0c-.77-1.44-2.12-4-1.86-4.25,0-7-1.08-10.87,3.1-16.78-5.19,2.45-15,14.69-16.42,18.87,0,0-7.34-11.52-13.25-15.41-2.09-1.73-4.25-1.37-7-1.73,3.45,6,1,15-1.44,22-6.27-.72-13.25-6.26-16.78-10.8,1.44,6.63,4.18,12.53,1.73,19.88-5.18-1.37-8.71-6.27-7.63-12.89-5.62,4.89-3.89,10.44-6.34,18.5-9.07-1.73-15-5.61-18.14-13.25-2.45,11.16-1.08,17.79,1.73,29-11.52.29-22.4,0-26.57-9.5-2.09,9.5,3.17,14,6.26,23.47-7,1.73-7.63,2.45-11.88,3.81-1.89.64-3.72,1.35-5.5,2.11-8.09,3.43-15.16,7.71-21.71,9.41,4.89,2.09,15.69,2.09,20.23,1.8L73.28,143.55c13.81-4.18,4.76-6.59,24.16-6.94,1.63,0,3.45,0,5.5,0l-5.5,6.06L78.17,163.86c7.46-4.39,13.14-7,19.27-8.49a65.85,65.85,0,0,1,11.84-1.66c-.36,4.53-11.23,18.21-8.79,27.28,4.9-9.79,21-17.85,30.82-19.58-1.44,12.6-4.25,17.14-6.34,18.14,15.77-3.45,17.14-15.33,25.92-17.13,1.37,5.61,3.46,8.42,4.54,14.69,5.18-16.78,10.8-24.48,13.25-25.85,2.09,8.71,0,13.61-.72,22,10.51-9.43,12.24-9.07,17.85-23.4a44.27,44.27,0,0,1,5.33,1.44,20.87,20.87,0,0,1,4.83,2.38c0,12.25-.53,21.46-2.67,29.55-.35,1.36-.76,2.69-1.22,4-2.74,8.78-7.35,16.41-10.08,23.4-5.26,12-8.43,23-10.87,37.37-3.17,15.4,5.25,64.65,1.44,63.28-.72,0-1.08,1.37-2.45-1.44-1.8-4.89-2.16-7-3.89-12.52-2.45-9.15-4.9-13.32-10.8-24.48-30.1-51-64-59.4-69.26-60.05,3.52,5.18,10.15,9.07,14.32,13.61,18.94,19.51,22.76,26.85,25.92,31.75,18.87,28.29,25.49,44.35,32.84,74.09,2.08,10.51,4.89,22,6,32.54.29,3.46,1,7.7,1,10.44h28.3c0-21.67,2.8-43,10.15-62.93,2.81-8.35,7.7-16.77,11.52-24.41,2.16-3.52,5.25-9.14,8.42-13.32,1.73-2.08,4.18-3.16,4.9-4.89,6,2.45,11.16,1.08,17.13-.72,6.27-1.73,8.36-2.81,10.8-5.26a24.73,24.73,0,0,0,8.07-9.43c6.26-13.25,2.81-22,7.63-34.13,4.18-10.51,9.79-13.68,12.6-22.75C276.61,207.2,263.43,213.11,261,213.83Zm-69.91-69a22.19,22.19,0,0,0-7.7-2.66c-1.37,9.07-4.18,11.16-9.8,17.78,0-9.79,1.08-13.61,0-19.51-7,2.73-9.79,7-12.6,14-3.09,5.54-3.45,3.81-4.89,6.26-.65-5.26-2.81-7-3.1-12.6-5.25,2.09-3.89,12.6-17.13,18.94,1.36-2.45.64-6.34.64-15.77l-24.76,11.88c3.09-7.71,8-13.25,8.71-16.42l-22.75,3.82c4.6-3.46,7.34-8.35,9.14-10.8,4.18-4.54,5.26-5.62,5.54-7.71H90.7l6.74-4.25,19.83-12.52A104.94,104.94,0,0,1,97.44,117h-.76l.76-.37c5.51-2.71,9.68-5.65,16-8,4.18-1.8,6.27-1.8,11.52-3.88-5.25-2.45-8.35-5.55-10.15-11.88C120.8,95,133,95,140.74,91.14c-1.08-6.63-4.53-10.15-2.45-16.06,8.72.65,9.44,4.9,17.79,6.63,0-4.54,1.08-8.07,1.8-12.24,4.53,1.72,6.62,3.81,11.52,3.81,1.73-5.25,1.73-8,1.73-12.53,1.44,2.74,9.07,5.91,12.24,6.27,0-6.27,2.44-10.51,4.89-20.31,3.82,2.45,9.07,9.8,10.15,16.42,4.76-.43,11.45-6.55,11.45-6.55l2.79,5.26V62l-.12.28a1.8,1.8,0,0,0-.15.86l1-.75,23.32-17.11c.65,0-.58.08.14.8C234.41,48.8,232,59.67,232,63.85c.72,0,16.41-10.44,17.13-11.52-1.08,8.06-4.53,12.24-7.7,20.3l20.3-6.33c-4.89,6.33-12.24,13-21,14.69,1.8,3.88,8.06,2.44,15.41,2.44-9.8,3.89-12.24,4.18-19.23,7,2.45,2.09,7,2.09,18.51,10.87-12.24,2.09-14.33-.36-23.4-1.44.72,6.34,3.52,10.51,9.43,15.41-8.35,1.37-11.16-1.73-18.87-2.81,1,5.62,3.17,6.62,0,11.52-5.25-2.09-8.78-1-14.68,0,.72,3.53,4.17,5.62,3.16,11.23-4.89-2.09-7-4.89-11.88-5.61-2.44,3.52-2.16,11.88-3.16,17.85C194.45,146.58,192.8,145.64,191.07,144.85Z"></path>
        </g>
    </g>
</svg>